<?xml version="1.0" standalone="no"?>
<!DOCTYPE svg PUBLIC "-//W3C//DTD SVG 20010904//EN"
 "http://www.w3.org/TR/2001/REC-SVG-20010904/DTD/svg10.dtd">
<svg version="1.0" xmlns="http://www.w3.org/2000/svg"
 width="150.000000pt" height="150.000000pt" viewBox="0 0 150.000000 150.000000"
 preserveAspectRatio="xMidYMid meet">
<metadata>
Created by potrace 1.14, written by Peter Selinger 2001-2017
</metadata>
<g transform="translate(0.000000,150.000000) scale(0.100000,-0.100000)"
fill="#000000" stroke="none">
<path d="M885 1370 c-53 -13 -79 -27 -118 -65 -58 -55 -70 -92 -76 -237 l-6
-128 -50 47 c-72 66 -145 119 -183 131 -29 10 -34 9 -49 -14 -15 -24 -15 -28
6 -71 20 -41 51 -85 136 -188 l24 -31 -113 -2 c-131 -2 -182 -18 -237 -76
-150 -159 -34 -432 180 -421 77 4 107 21 207 117 46 45 84 78 84 74 0 -3 -14
-54 -31 -112 -34 -116 -34 -155 1 -204 74 -104 243 -68 266 56 3 19 -1 77 -11
130 -9 52 -15 97 -13 99 2 2 20 -11 41 -29 50 -43 114 -75 138 -69 33 9 33 41
-1 109 -18 35 -41 71 -51 80 -32 29 -22 32 54 17 146 -28 177 -24 226 33 76
86 37 222 -74 253 -34 9 -53 6 -174 -34 l-136 -44 40 35 c128 112 172 163 190
219 28 92 9 183 -53 253 -51 56 -148 89 -217 72z"/>
</g>
</svg>
